<svg width="34" height="40" viewBox="0 0 34 40" fill="none" xmlns="http://www.w3.org/2000/svg">
<mask id="mask0_3304_12783" style="mask-type:alpha" maskUnits="userSpaceOnUse" x="0" y="0" width="31" height="38">
<path d="M29.3995 13.315C29.7948 13.3108 30.1543 13.5383 30.3198 13.8917C30.4991 14.2746 30.4432 14.6949 30.2155 14.9799L12.6823 36.923C12.5615 37.0507 12.4565 37.135 12.3083 37.2041C12.0116 37.3418 11.6895 37.348 11.4011 37.195C10.9823 36.995 10.7181 36.5081 10.8493 36.017L14.0049 23.9393L1.0207 23.9792C0.625374 23.9834 0.265953 23.7559 0.100411 23.4025C-0.0651285 23.0491 -0.0229935 22.5993 0.204711 22.3143L17.7517 0.400724C18.0408 0.0155324 18.5569 -0.116475 18.9895 0.112975C19.4379 0.299203 19.6724 0.799855 19.5709 1.27721L16.4153 13.3549L29.3995 13.315Z" fill="white"/>
</mask>
<g mask="url(#mask0_3304_12783)">
<path d="M29.4083 13.2049C29.8004 13.2007 30.1568 13.4264 30.321 13.7768C30.4988 14.1565 30.4434 14.5734 30.2175 14.856L12.8293 36.6176C12.7096 36.7443 12.6055 36.8279 12.4585 36.8964C12.1642 37.033 11.8447 37.0391 11.5587 36.8874C11.1434 36.689 10.8814 36.2062 11.0115 35.7191L14.141 23.7413L1.26421 23.7809C0.872154 23.7851 0.515706 23.5594 0.351533 23.2089C0.187363 22.8585 0.22915 22.4124 0.454971 22.1297L17.8569 0.39741C18.1436 0.0154039 18.6554 -0.115512 19.0844 0.112041C19.5291 0.296728 19.7616 0.79324 19.661 1.26664L16.5315 13.2445L29.4083 13.2049Z" fill="#01FFC8"/>
</g>
<mask id="mask1_3304_12783" style="mask-type:alpha" maskUnits="userSpaceOnUse" x="0" y="0" width="34" height="40">
<path d="M29.4474 13.7393C29.8427 13.735 32.946 15.3995 33.1117 15.7528C33.2908 16.1357 33.2349 16.5561 33.0072 16.841L15.474 38.7841C15.3532 38.9118 15.2482 38.9961 15.1 39.0652C14.8033 39.203 14.4811 39.2091 14.1928 39.0561C13.774 38.8561 11.1834 36.7407 11.3145 36.2496L16.962 27.0881H4.66308C4.26776 27.0923 0.342371 23.3155 0.570075 23.0306C8.78835 12.5176 14.6556 5.06545 18.1718 0.674224C18.7465 -0.0434645 21.3486 1.74465 21.7812 1.9741C22.2296 2.16033 22.4641 2.66098 22.3626 3.13833L19.207 15.216L29.4474 13.7393Z" fill="white"/>
</mask>
<g mask="url(#mask1_3304_12783)">
<path d="M29.4474 13.7393C29.8427 13.735 32.946 15.3995 33.1117 15.7528C33.2908 16.1357 33.2349 16.5561 33.0072 16.841L15.474 38.7841C15.3532 38.9118 15.2482 38.9961 15.1 39.0652C14.8033 39.203 14.4811 39.2091 14.1928 39.0561C13.774 38.8561 11.1834 36.7407 11.3145 36.2496L16.962 27.0881H4.66308C4.26776 27.0923 0.342371 23.3155 0.570075 23.0306C8.78835 12.5176 14.6556 5.06545 18.1718 0.674224C18.7465 -0.0434645 21.3486 1.74465 21.7812 1.9741C22.2296 2.16033 22.4641 2.66098 22.3626 3.13834L19.207 15.216L29.4474 13.7393Z" stroke="#01FFC8" stroke-width="0.930593"/>
</g>
</svg>
